<?xml version="1.0" standalone="no"?>
<!DOCTYPE svg PUBLIC "-//W3C//DTD SVG 20010904//EN"
 "http://www.w3.org/TR/2001/REC-SVG-20010904/DTD/svg10.dtd">
<svg version="1.0" xmlns="http://www.w3.org/2000/svg"
 width="256.000000pt" height="256.000000pt" viewBox="0 0 256.000000 256.000000"
 preserveAspectRatio="xMidYMid meet">
<metadata>
Created by potrace 1.14, written by Peter Selinger 2001-2017
</metadata>
<g transform="translate(0.000000,256.000000) scale(0.100000,-0.100000)"
fill="#000000" stroke="none">
<path d="M860 2538 c-57 -39 -60 -52 -60 -276 0 -168 3 -210 16 -238 40 -83
167 -85 209 -3 14 25 16 65 13 249 l-3 220 -31 31 c-43 42 -97 49 -144 17z"/>
<path d="M473 2386 c-60 -27 -73 -64 -73 -204 0 -139 11 -176 59 -205 57 -34
137 -13 166 43 11 22 15 63 15 165 l0 135 -32 35 c-39 42 -87 53 -135 31z"/>
<path d="M1259 2377 c-52 -35 -59 -57 -59 -200 0 -143 10 -176 60 -202 62 -32
141 -9 166 50 18 45 19 269 1 305 -16 33 -73 70 -107 70 -15 0 -42 -10 -61
-23z"/>
<path d="M3 1328 c3 -533 4 -556 25 -638 90 -342 357 -596 702 -666 116 -23
354 -15 460 15 337 98 585 379 645 734 l6 37 132 0 c211 0 299 32 423 155 80
79 116 142 145 253 24 95 24 149 -1 246 -40 156 -135 279 -269 350 -129 68
-93 66 -1239 66 l-1033 0 4 -552z m2138 286 c195 -90 237 -345 79 -487 -67
-60 -125 -77 -266 -77 l-114 0 0 296 0 296 128 -4 c102 -3 136 -8 173 -24z"/>
</g>
</svg>
